<svg xmlns="http://www.w3.org/2000/svg" xmlns:xlink="http://www.w3.org/1999/xlink" contentStyleType="text/css" height="379px" preserveAspectRatio="none" style="width:981px;height:379px;background:#FFFFFF;" version="1.1" viewBox="0 0 981 379" width="981px" zoomAndPan="magnify"><defs/><g><!--cluster menu--><g id="cluster_menu"><path d="M8.5,91 L53.5166,91 A3.75,3.75 0 0 1 56.0166,93.5 L63.0166,113.2969 L971.5,113.2969 A2.5,2.5 0 0 1 974,115.7969 L974,369.5 A2.5,2.5 0 0 1 971.5,372 L8.5,372 A2.5,2.5 0 0 1 6,369.5 L6,93.5 A2.5,2.5 0 0 1 8.5,91 " fill="none" style="stroke:#000000;stroke-width:1.5;"/><line style="stroke:#000000;stroke-width:1.5;" x1="6" x2="63.0166" y1="113.2969" y2="113.2969"/><text fill="#000000" font-family="sans-serif" font-size="14" font-weight="bold" lengthAdjust="spacing" textLength="44.0166" x="10" y="105.9951">menu</text></g><!--class MenuItem--><g id="elem_MenuItem"><rect codeLine="10" fill="#F1F1F1" height="123.7813" id="MenuItem" rx="2.5" ry="2.5" style="stroke:#181818;stroke-width:0.5;" width="431.8086" x="526" y="179"/><text fill="#000000" font-family="sans-serif" font-size="14" lengthAdjust="spacing" textLength="70.3076" x="706.7505" y="196.9951">MenuItem</text><line style="stroke:#181818;stroke-width:0.5;" x1="527" x2="956.8086" y1="205.2969" y2="205.2969"/><text fill="#000000" font-family="sans-serif" font-size="14" lengthAdjust="spacing" textLength="135.2012" x="532" y="222.292">-menuText : Object</text><text fill="#000000" font-family="sans-serif" font-size="14" lengthAdjust="spacing" textLength="192.8486" x="532" y="238.5889">-menuResponse : Runnable</text><line style="stroke:#181818;stroke-width:0.5;" x1="527" x2="956.8086" y1="245.8906" y2="245.8906"/><text fill="#000000" font-family="sans-serif" font-size="14" lengthAdjust="spacing" textLength="419.8086" x="532" y="262.8857">+MenuItem(menuText : Object, menuResponse : Runnable)</text><text fill="#000000" font-family="sans-serif" font-size="14" lengthAdjust="spacing" textLength="213.835" x="532" y="279.1826">+toString() : String &#171;override&#187;</text><text fill="#000000" font-family="sans-serif" font-size="14" lengthAdjust="spacing" textLength="126.1025" x="532" y="295.4795">+run() &#171;override&#187;</text></g><!--class Menu--><g id="elem_Menu"><rect codeLine="17" fill="#F1F1F1" height="229.5625" id="Menu" rx="2.5" ry="2.5" style="stroke:#181818;stroke-width:0.5;" width="468.6748" x="21.5" y="126"/><text fill="#000000" font-family="sans-serif" font-size="14" lengthAdjust="spacing" textLength="38.4385" x="236.6182" y="143.9951">Menu</text><line style="stroke:#181818;stroke-width:0.5;" x1="22.5" x2="489.1748" y1="152.2969" y2="152.2969"/><text fill="#000000" font-family="sans-serif" font-size="14" lengthAdjust="spacing" textLength="175.834" x="27.5" y="169.292">-items : List&lt;MenuItem&gt;</text><line style="stroke:#181818;stroke-width:1;" x1="22.5" x2="489.1748" y1="176.5938" y2="176.5938"/><text fill="#000000" font-family="sans-serif" font-size="14" lengthAdjust="spacing" textLength="234.8691" x="27.5" y="193.5889">+addMenuItem(item : MenuItem)</text><text fill="#000000" font-family="sans-serif" font-size="14" lengthAdjust="spacing" textLength="165.8945" x="27.5" y="209.8857">+run(itemNumber : int)</text><text fill="#000000" font-family="sans-serif" font-size="14" lengthAdjust="spacing" textLength="213.835" x="27.5" y="226.1826">+toString() : String &#171;override&#187;</text><line style="stroke:#181818;stroke-width:1;stroke-dasharray:1.0,2.0;" x1="22.5" x2="489.1748" y1="233.4844" y2="233.4844"/><text fill="#000000" font-family="sans-serif" font-size="14" lengthAdjust="spacing" text-decoration="underline" textLength="249.4434" x="27.5" y="250.4795">+getString(prompt : String) : String</text><text fill="#000000" font-family="sans-serif" font-size="14" lengthAdjust="spacing" text-decoration="underline" textLength="234.7324" x="27.5" y="266.7764">+getInt(prompt : String) : Integer</text><text fill="#000000" font-family="sans-serif" font-size="14" lengthAdjust="spacing" text-decoration="underline" textLength="265.0977" x="27.5" y="283.0732">+getDouble(prompt : String) : Double</text><text fill="#000000" font-family="sans-serif" font-size="14" lengthAdjust="spacing" text-decoration="underline" textLength="267.9824" x="27.5" y="299.3701">+getChar(prompt : String) : Character</text><text fill="#000000" font-family="sans-serif" font-size="14" lengthAdjust="spacing" text-decoration="underline" textLength="279.2617" x="27.5" y="315.667">+getBoolean(prompt : String) : Boolean</text><text fill="#000000" font-family="sans-serif" font-size="14" lengthAdjust="spacing" text-decoration="underline" textLength="456.6748" x="27.5" y="331.9639">+selectItemFromArray(prompt : String, array : Object[]) : Integer</text><text fill="#000000" font-family="sans-serif" font-size="14" lengthAdjust="spacing" text-decoration="underline" textLength="394.7549" x="27.5" y="348.2607">+selectItemFromList(prompt : String, list : List) : Integer</text></g><!--class Runnable--><g id="elem_Runnable"><rect codeLine="5" fill="#F1F1F1" height="58.5938" id="Runnable" rx="2.5" ry="2.5" style="stroke:#181818;stroke-width:0.5;" width="72.3154" x="706" y="7"/><text fill="#000000" font-family="sans-serif" font-size="14" lengthAdjust="spacing" textLength="66.3154" x="709" y="24.9951">Runnable</text><line style="stroke:#181818;stroke-width:0.5;" x1="707" x2="777.3154" y1="33.2969" y2="33.2969"/><line style="stroke:#181818;stroke-width:0.5;" x1="707" x2="777.3154" y1="41.2969" y2="41.2969"/><text fill="#000000" font-family="sans-serif" font-size="14" font-style="italic" lengthAdjust="spacing" textLength="46.1563" x="712" y="58.292">+run()</text></g><!--reverse link Runnable to MenuItem--><g id="link_Runnable_MenuItem"><path codeLine="34" d="M742,84.08 C742,113.19 742,141.24 742,178.64 " fill="none" id="Runnable-backto-MenuItem" style="stroke:#181818;stroke-width:1;"/><polygon fill="none" points="742,66.08,736,84.08,748,84.08,742,66.08" style="stroke:#181818;stroke-width:1;"/></g><!--reverse link Menu to MenuItem--><g id="link_Menu_MenuItem"><path codeLine="35" d="M502.93,241 C514.54,241 514.14,241 525.75,241 " fill="none" id="Menu-backto-MenuItem" style="stroke:#181818;stroke-width:1;"/><polygon fill="none" points="490.93,241,496.93,245,502.93,241,496.93,237,490.93,241" style="stroke:#181818;stroke-width:1;"/></g><!--SRC=[ZLFTIyCm47_FNn7mmGtN8VWcPJ0tX84ViFacFgJjqSMrIKckeix-xrxIBTji1zANzlTrbzpLRgIgX14bJmjXxHJHoAH6MAHQhUGty6jsoMqG9IBTv4RNAflfGXj-CRzn3rlB37WgJLe0Opw9BskbH580tpBEhxOYiMX4YWqtjHeCMSDOHM4Y1rw2gadLsXxfOu5GUblakHVuH7xBdvDtI36WIx2LLXQ8sPToXKB0e6CTdVCDlH7rYWwlyi6GgFQLnx7-06FeT9E94_dUJz7cgF5TqvBAMmfva1RZVJyJ5aM-ZiYoqADJad3_tJRYYZZYgIuJC4HBXVziSJpskgr5WJ9jU0wuSrH6bnK6so6WOrWex5CJ33cOZdokQxh2FaVBT0opjJ1zSeVJWlIKkDEw0A7wJ3lgr6AXe76x2xqdnzGOyVNNE-B2mM4tNj_Edl4qpSsq6rOGkXluSKxZrZpy2F5F58LHCxyl-W3y0W00]--></g></svg>