<svg xmlns="http://www.w3.org/2000/svg" xmlns:xlink="http://www.w3.org/1999/xlink" contentStyleType="text/css" height="260px" preserveAspectRatio="none" style="width:1755px;height:260px;background:#FFFFFF;" version="1.1" viewBox="0 0 1755 260" width="1755px" zoomAndPan="magnify"><defs/><g><!--class Reader--><g id="elem_Reader"><rect codeLine="4" fill="#F1F1F1" height="42.2969" id="Reader" rx="2.5" ry="2.5" style="stroke:#181818;stroke-width:0.5;" width="56.1758" x="179" y="7"/><text fill="#000000" font-family="sans-serif" font-size="14" lengthAdjust="spacing" textLength="50.1758" x="182" y="24.9951">Reader</text><line style="stroke:#181818;stroke-width:0.5;" x1="180" x2="234.1758" y1="33.2969" y2="33.2969"/><line style="stroke:#181818;stroke-width:0.5;" x1="180" x2="234.1758" y1="41.2969" y2="41.2969"/></g><!--class BufferedReader--><g id="elem_BufferedReader"><rect codeLine="6" fill="#F1F1F1" height="42.2969" id="BufferedReader" rx="2.5" ry="2.5" style="stroke:#181818;stroke-width:0.5;" width="116.3799" x="7" y="109"/><text fill="#000000" font-family="sans-serif" font-size="14" lengthAdjust="spacing" textLength="110.3799" x="10" y="126.9951">BufferedReader</text><line style="stroke:#181818;stroke-width:0.5;" x1="8" x2="122.3799" y1="135.2969" y2="135.2969"/><line style="stroke:#181818;stroke-width:0.5;" x1="8" x2="122.3799" y1="143.2969" y2="143.2969"/></g><!--class StringReader--><g id="elem_StringReader"><rect codeLine="8" fill="#F1F1F1" height="42.2969" id="StringReader" rx="2.5" ry="2.5" style="stroke:#181818;stroke-width:0.5;" width="97.957" x="158" y="109"/><text fill="#000000" font-family="sans-serif" font-size="14" lengthAdjust="spacing" textLength="91.957" x="161" y="126.9951">StringReader</text><line style="stroke:#181818;stroke-width:0.5;" x1="159" x2="254.957" y1="135.2969" y2="135.2969"/><line style="stroke:#181818;stroke-width:0.5;" x1="159" x2="254.957" y1="143.2969" y2="143.2969"/></g><!--class InputStreamReader--><g id="elem_InputStreamReader"><rect codeLine="10" fill="#F1F1F1" height="42.2969" id="InputStreamReader" rx="2.5" ry="2.5" style="stroke:#181818;stroke-width:0.5;" width="143.3887" x="291.5" y="109"/><text fill="#000000" font-family="sans-serif" font-size="14" lengthAdjust="spacing" textLength="137.3887" x="294.5" y="126.9951">InputStreamReader</text><line style="stroke:#181818;stroke-width:0.5;" x1="292.5" x2="433.8887" y1="135.2969" y2="135.2969"/><line style="stroke:#181818;stroke-width:0.5;" x1="292.5" x2="433.8887" y1="143.2969" y2="143.2969"/></g><!--class FileReader--><g id="elem_FileReader"><rect codeLine="12" fill="#F1F1F1" height="42.2969" id="FileReader" rx="2.5" ry="2.5" style="stroke:#181818;stroke-width:0.5;" width="80.6211" x="322.5" y="211"/><text fill="#000000" font-family="sans-serif" font-size="14" lengthAdjust="spacing" textLength="74.6211" x="325.5" y="228.9951">FileReader</text><line style="stroke:#181818;stroke-width:0.5;" x1="323.5" x2="402.1211" y1="237.2969" y2="237.2969"/><line style="stroke:#181818;stroke-width:0.5;" x1="323.5" x2="402.1211" y1="245.2969" y2="245.2969"/></g><!--class Writer--><g id="elem_Writer"><rect codeLine="15" fill="#F1F1F1" height="42.2969" id="Writer" rx="2.5" ry="2.5" style="stroke:#181818;stroke-width:0.5;" width="49.3467" x="697.5" y="7"/><text fill="#000000" font-family="sans-serif" font-size="14" lengthAdjust="spacing" textLength="43.3467" x="700.5" y="24.9951">Writer</text><line style="stroke:#181818;stroke-width:0.5;" x1="698.5" x2="745.8467" y1="33.2969" y2="33.2969"/><line style="stroke:#181818;stroke-width:0.5;" x1="698.5" x2="745.8467" y1="41.2969" y2="41.2969"/></g><!--class BufferedWriter--><g id="elem_BufferedWriter"><rect codeLine="17" fill="#F1F1F1" height="42.2969" id="BufferedWriter" rx="2.5" ry="2.5" style="stroke:#181818;stroke-width:0.5;" width="109.5508" x="470" y="109"/><text fill="#000000" font-family="sans-serif" font-size="14" lengthAdjust="spacing" textLength="103.5508" x="473" y="126.9951">BufferedWriter</text><line style="stroke:#181818;stroke-width:0.5;" x1="471" x2="578.5508" y1="135.2969" y2="135.2969"/><line style="stroke:#181818;stroke-width:0.5;" x1="471" x2="578.5508" y1="143.2969" y2="143.2969"/></g><!--class StringWriter--><g id="elem_StringWriter"><rect codeLine="19" fill="#F1F1F1" height="42.2969" id="StringWriter" rx="2.5" ry="2.5" style="stroke:#181818;stroke-width:0.5;" width="91.1279" x="615.5" y="109"/><text fill="#000000" font-family="sans-serif" font-size="14" lengthAdjust="spacing" textLength="85.1279" x="618.5" y="126.9951">StringWriter</text><line style="stroke:#181818;stroke-width:0.5;" x1="616.5" x2="705.6279" y1="135.2969" y2="135.2969"/><line style="stroke:#181818;stroke-width:0.5;" x1="616.5" x2="705.6279" y1="143.2969" y2="143.2969"/></g><!--class PrintWriter--><g id="elem_PrintWriter"><rect codeLine="21" fill="#F1F1F1" height="42.2969" id="PrintWriter" rx="2.5" ry="2.5" style="stroke:#181818;stroke-width:0.5;" width="81.7969" x="742" y="109"/><text fill="#000000" font-family="sans-serif" font-size="14" lengthAdjust="spacing" textLength="75.7969" x="745" y="126.9951">PrintWriter</text><line style="stroke:#181818;stroke-width:0.5;" x1="743" x2="822.7969" y1="135.2969" y2="135.2969"/><line style="stroke:#181818;stroke-width:0.5;" x1="743" x2="822.7969" y1="143.2969" y2="143.2969"/></g><!--class OutputStreamWriter--><g id="elem_OutputStreamWriter"><rect codeLine="23" fill="#F1F1F1" height="42.2969" id="OutputStreamWriter" rx="2.5" ry="2.5" style="stroke:#181818;stroke-width:0.5;" width="148.9395" x="859.5" y="109"/><text fill="#000000" font-family="sans-serif" font-size="14" lengthAdjust="spacing" textLength="142.9395" x="862.5" y="126.9951">OutputStreamWriter</text><line style="stroke:#181818;stroke-width:0.5;" x1="860.5" x2="1007.4395" y1="135.2969" y2="135.2969"/><line style="stroke:#181818;stroke-width:0.5;" x1="860.5" x2="1007.4395" y1="143.2969" y2="143.2969"/></g><!--class FileWriter--><g id="elem_FileWriter"><rect codeLine="25" fill="#F1F1F1" height="42.2969" id="FileWriter" rx="2.5" ry="2.5" style="stroke:#181818;stroke-width:0.5;" width="73.792" x="897" y="211"/><text fill="#000000" font-family="sans-serif" font-size="14" lengthAdjust="spacing" textLength="67.792" x="900" y="228.9951">FileWriter</text><line style="stroke:#181818;stroke-width:0.5;" x1="898" x2="969.792" y1="237.2969" y2="237.2969"/><line style="stroke:#181818;stroke-width:0.5;" x1="898" x2="969.792" y1="245.2969" y2="245.2969"/></g><!--class InputStream--><g id="elem_InputStream"><rect codeLine="28" fill="#F1F1F1" height="42.2969" id="InputStream" rx="2.5" ry="2.5" style="stroke:#181818;stroke-width:0.5;" width="93.2129" x="1135.5" y="7"/><text fill="#000000" font-family="sans-serif" font-size="14" lengthAdjust="spacing" textLength="87.2129" x="1138.5" y="24.9951">InputStream</text><line style="stroke:#181818;stroke-width:0.5;" x1="1136.5" x2="1227.7129" y1="33.2969" y2="33.2969"/><line style="stroke:#181818;stroke-width:0.5;" x1="1136.5" x2="1227.7129" y1="41.2969" y2="41.2969"/></g><!--class FileInputStream--><g id="elem_FileInputStream"><rect codeLine="30" fill="#F1F1F1" height="42.2969" id="FileInputStream" rx="2.5" ry="2.5" style="stroke:#181818;stroke-width:0.5;" width="117.6582" x="1044" y="109"/><text fill="#000000" font-family="sans-serif" font-size="14" lengthAdjust="spacing" textLength="111.6582" x="1047" y="126.9951">FileInputStream</text><line style="stroke:#181818;stroke-width:0.5;" x1="1045" x2="1160.6582" y1="135.2969" y2="135.2969"/><line style="stroke:#181818;stroke-width:0.5;" x1="1045" x2="1160.6582" y1="143.2969" y2="143.2969"/></g><!--class FilterInputStream--><g id="elem_FilterInputStream"><rect codeLine="32" fill="#F1F1F1" height="42.2969" id="FilterInputStream" rx="2.5" ry="2.5" style="stroke:#181818;stroke-width:0.5;" width="128.9033" x="1197.5" y="109"/><text fill="#000000" font-family="sans-serif" font-size="14" lengthAdjust="spacing" textLength="122.9033" x="1200.5" y="126.9951">FilterInputStream</text><line style="stroke:#181818;stroke-width:0.5;" x1="1198.5" x2="1325.4033" y1="135.2969" y2="135.2969"/><line style="stroke:#181818;stroke-width:0.5;" x1="1198.5" x2="1325.4033" y1="143.2969" y2="143.2969"/></g><!--class BufferedInputStream--><g id="elem_BufferedInputStream"><rect codeLine="34" fill="#F1F1F1" height="42.2969" id="BufferedInputStream" rx="2.5" ry="2.5" style="stroke:#181818;stroke-width:0.5;" width="153.417" x="1185.5" y="211"/><text fill="#000000" font-family="sans-serif" font-size="14" lengthAdjust="spacing" textLength="147.417" x="1188.5" y="228.9951">BufferedInputStream</text><line style="stroke:#181818;stroke-width:0.5;" x1="1186.5" x2="1337.917" y1="237.2969" y2="237.2969"/><line style="stroke:#181818;stroke-width:0.5;" x1="1186.5" x2="1337.917" y1="245.2969" y2="245.2969"/></g><!--class OutputStream--><g id="elem_OutputStream"><rect codeLine="38" fill="#F1F1F1" height="42.2969" id="OutputStream" rx="2.5" ry="2.5" style="stroke:#181818;stroke-width:0.5;" width="105.5928" x="1470" y="7"/><text fill="#000000" font-family="sans-serif" font-size="14" lengthAdjust="spacing" textLength="99.5928" x="1473" y="24.9951">OutputStream</text><line style="stroke:#181818;stroke-width:0.5;" x1="1471" x2="1574.5928" y1="33.2969" y2="33.2969"/><line style="stroke:#181818;stroke-width:0.5;" x1="1471" x2="1574.5928" y1="41.2969" y2="41.2969"/></g><!--class FileOutputStream--><g id="elem_FileOutputStream"><rect codeLine="40" fill="#F1F1F1" height="42.2969" id="FileOutputStream" rx="2.5" ry="2.5" style="stroke:#181818;stroke-width:0.5;" width="130.0381" x="1373" y="109"/><text fill="#000000" font-family="sans-serif" font-size="14" lengthAdjust="spacing" textLength="124.0381" x="1376" y="126.9951">FileOutputStream</text><line style="stroke:#181818;stroke-width:0.5;" x1="1374" x2="1502.0381" y1="135.2969" y2="135.2969"/><line style="stroke:#181818;stroke-width:0.5;" x1="1374" x2="1502.0381" y1="143.2969" y2="143.2969"/></g><!--class FilterOutputStream--><g id="elem_FilterOutputStream"><rect codeLine="42" fill="#F1F1F1" height="42.2969" id="FilterOutputStream" rx="2.5" ry="2.5" style="stroke:#181818;stroke-width:0.5;" width="141.2832" x="1538.5" y="109"/><text fill="#000000" font-family="sans-serif" font-size="14" lengthAdjust="spacing" textLength="135.2832" x="1541.5" y="126.9951">FilterOutputStream</text><line style="stroke:#181818;stroke-width:0.5;" x1="1539.5" x2="1678.7832" y1="135.2969" y2="135.2969"/><line style="stroke:#181818;stroke-width:0.5;" x1="1539.5" x2="1678.7832" y1="143.2969" y2="143.2969"/></g><!--class BufferedOutputStream--><g id="elem_BufferedOutputStream"><rect codeLine="44" fill="#F1F1F1" height="42.2969" id="BufferedOutputStream" rx="2.5" ry="2.5" style="stroke:#181818;stroke-width:0.5;" width="165.7969" x="1374" y="211"/><text fill="#000000" font-family="sans-serif" font-size="14" lengthAdjust="spacing" textLength="159.7969" x="1377" y="228.9951">BufferedOutputStream</text><line style="stroke:#181818;stroke-width:0.5;" x1="1375" x2="1538.7969" y1="237.2969" y2="237.2969"/><line style="stroke:#181818;stroke-width:0.5;" x1="1375" x2="1538.7969" y1="245.2969" y2="245.2969"/></g><!--class PrintStream--><g id="elem_PrintStream"><rect codeLine="46" fill="#F1F1F1" height="42.2969" id="PrintStream" rx="2.5" ry="2.5" style="stroke:#181818;stroke-width:0.5;" width="89.4121" x="1575.5" y="211"/><text fill="#000000" font-family="sans-serif" font-size="14" lengthAdjust="spacing" textLength="83.4121" x="1578.5" y="228.9951">PrintStream</text><line style="stroke:#181818;stroke-width:0.5;" x1="1576.5" x2="1663.9121" y1="237.2969" y2="237.2969"/><line style="stroke:#181818;stroke-width:0.5;" x1="1576.5" x2="1663.9121" y1="245.2969" y2="245.2969"/></g><!--class RandomAccessFile--><g id="elem_RandomAccessFile"><rect codeLine="49" fill="#F1F1F1" height="42.2969" id="RandomAccessFile" rx="2.5" ry="2.5" style="stroke:#181818;stroke-width:0.5;" width="136.8877" x="1611.5" y="7"/><text fill="#000000" font-family="sans-serif" font-size="14" lengthAdjust="spacing" textLength="130.8877" x="1614.5" y="24.9951">RandomAccessFile</text><line style="stroke:#181818;stroke-width:0.5;" x1="1612.5" x2="1747.3877" y1="33.2969" y2="33.2969"/><line style="stroke:#181818;stroke-width:0.5;" x1="1612.5" x2="1747.3877" y1="41.2969" y2="41.2969"/></g><!--reverse link Reader to BufferedReader--><g id="link_Reader_BufferedReader"><path d="M164.2296,59.119 C139.4896,76.529 118.34,91.43 93.48,108.94 " fill="none" id="Reader-backto-BufferedReader" style="stroke:#181818;stroke-width:1;"/><polygon fill="none" points="178.95,48.76,160.7766,54.2122,167.6826,64.0258,178.95,48.76" style="stroke:#181818;stroke-width:1;"/></g><!--reverse link Reader to StringReader--><g id="link_Reader_StringReader"><path d="M207,67.24 C207,84.59 207,91.45 207,108.79 " fill="none" id="Reader-backto-StringReader" style="stroke:#181818;stroke-width:1;"/><polygon fill="none" points="207,49.24,201,67.24,213,67.24,207,49.24" style="stroke:#181818;stroke-width:1;"/></g><!--reverse link Reader to InputStreamReader--><g id="link_Reader_InputStreamReader"><path d="M250.4035,56.8245 C277.6235,74.2745 303.56,90.9 331.75,108.97 " fill="none" id="Reader-backto-InputStreamReader" style="stroke:#181818;stroke-width:1;"/><polygon fill="none" points="235.25,47.11,247.1653,61.8757,253.6417,51.7733,235.25,47.11" style="stroke:#181818;stroke-width:1;"/></g><!--reverse link InputStreamReader to FileReader--><g id="link_InputStreamReader_FileReader"><path d="M363,169.24 C363,186.59 363,193.45 363,210.79 " fill="none" id="InputStreamReader-backto-FileReader" style="stroke:#181818;stroke-width:1;"/><polygon fill="none" points="363,151.24,357,169.24,369,169.24,363,151.24" style="stroke:#181818;stroke-width:1;"/></g><!--reverse link Writer to BufferedWriter--><g id="link_Writer_BufferedWriter"><path d="M681.3988,49.606 C648.0788,66.516 604.22,88.79 564.53,108.93 " fill="none" id="Writer-backto-BufferedWriter" style="stroke:#181818;stroke-width:1;"/><polygon fill="none" points="697.45,41.46,678.6834,44.2556,684.1141,54.9565,697.45,41.46" style="stroke:#181818;stroke-width:1;"/></g><!--reverse link Writer to StringWriter--><g id="link_Writer_StringWriter"><path d="M700.2821,64.6041 C689.6921,81.9541 683.9,91.45 673.33,108.79 " fill="none" id="Writer-backto-StringWriter" style="stroke:#181818;stroke-width:1;"/><polygon fill="none" points="709.66,49.24,695.1608,61.4782,705.4035,67.7301,709.66,49.24" style="stroke:#181818;stroke-width:1;"/></g><!--reverse link Writer to PrintWriter--><g id="link_Writer_PrintWriter"><path d="M743.7179,64.6041 C754.3079,81.9541 760.1,91.45 770.67,108.79 " fill="none" id="Writer-backto-PrintWriter" style="stroke:#181818;stroke-width:1;"/><polygon fill="none" points="734.34,49.24,738.5965,67.7301,748.8392,61.4782,734.34,49.24" style="stroke:#181818;stroke-width:1;"/></g><!--reverse link Writer to OutputStreamWriter--><g id="link_Writer_OutputStreamWriter"><path d="M763.0107,48.3472 C798.5107,65.0872 848.12,88.49 891.51,108.96 " fill="none" id="Writer-backto-OutputStreamWriter" style="stroke:#181818;stroke-width:1;"/><polygon fill="none" points="746.73,40.67,760.4517,53.7741,765.5698,42.9203,746.73,40.67" style="stroke:#181818;stroke-width:1;"/></g><!--reverse link OutputStreamWriter to FileWriter--><g id="link_OutputStreamWriter_FileWriter"><path d="M934,169.24 C934,186.59 934,193.45 934,210.79 " fill="none" id="OutputStreamWriter-backto-FileWriter" style="stroke:#181818;stroke-width:1;"/><polygon fill="none" points="934,151.24,928,169.24,940,169.24,934,151.24" style="stroke:#181818;stroke-width:1;"/></g><!--reverse link InputStream to FileInputStream--><g id="link_InputStream_FileInputStream"><path d="M1154.8551,63.3668 C1141.1551,80.7168 1132.66,91.45 1118.96,108.79 " fill="none" id="InputStream-backto-FileInputStream" style="stroke:#181818;stroke-width:1;"/><polygon fill="none" points="1166.01,49.24,1150.1461,59.6485,1159.564,67.0852,1166.01,49.24" style="stroke:#181818;stroke-width:1;"/></g><!--reverse link InputStream to FilterInputStream--><g id="link_InputStream_FilterInputStream"><path d="M1209.4345,63.2956 C1223.3145,80.6456 1231.96,91.45 1245.83,108.79 " fill="none" id="InputStream-backto-FilterInputStream" style="stroke:#181818;stroke-width:1;"/><polygon fill="none" points="1198.19,49.24,1204.7493,67.0438,1214.1197,59.5475,1198.19,49.24" style="stroke:#181818;stroke-width:1;"/></g><!--reverse link FilterInputStream to BufferedInputStream--><g id="link_FilterInputStream_BufferedInputStream"><path d="M1262,169.24 C1262,186.59 1262,193.45 1262,210.79 " fill="none" id="FilterInputStream-backto-BufferedInputStream" style="stroke:#181818;stroke-width:1;"/><polygon fill="none" points="1262,151.24,1256,169.24,1268,169.24,1262,151.24" style="stroke:#181818;stroke-width:1;"/></g><!--reverse link OutputStream to FileOutputStream--><g id="link_OutputStream_FileOutputStream"><path d="M1494.1412,62.9539 C1479.3912,80.3039 1469.92,91.45 1455.18,108.79 " fill="none" id="OutputStream-backto-FileOutputStream" style="stroke:#181818;stroke-width:1;"/><polygon fill="none" points="1505.8,49.24,1489.5699,59.0677,1498.7125,66.8402,1505.8,49.24" style="stroke:#181818;stroke-width:1;"/></g><!--reverse link OutputStream to FilterOutputStream--><g id="link_OutputStream_FilterOutputStream"><path d="M1552.1363,62.8877 C1567.0563,80.2377 1576.71,91.45 1591.62,108.79 " fill="none" id="OutputStream-backto-FilterOutputStream" style="stroke:#181818;stroke-width:1;"/><polygon fill="none" points="1540.4,49.24,1547.587,66.7998,1556.6855,58.9756,1540.4,49.24" style="stroke:#181818;stroke-width:1;"/></g><!--reverse link FilterOutputStream to BufferedOutputStream--><g id="link_FilterOutputStream_BufferedOutputStream"><path d="M1563.2004,161.13 C1536.7404,178.53 1513.82,193.62 1487.45,210.96 " fill="none" id="FilterOutputStream-backto-BufferedOutputStream" style="stroke:#181818;stroke-width:1;"/><polygon fill="none" points="1578.24,151.24,1559.9038,156.1168,1566.4971,166.1432,1578.24,151.24" style="stroke:#181818;stroke-width:1;"/></g><!--reverse link FilterOutputStream to PrintStream--><g id="link_FilterOutputStream_PrintStream"><path d="M1613.1895,169.133 C1615.0895,186.483 1615.87,193.45 1617.78,210.79 " fill="none" id="FilterOutputStream-backto-PrintStream" style="stroke:#181818;stroke-width:1;"/><polygon fill="none" points="1611.23,151.24,1607.2251,169.7862,1619.1538,168.4799,1611.23,151.24" style="stroke:#181818;stroke-width:1;"/></g><!--SRC=[bPDD3i8W48NtFGL7y0frOU9AOnUk4QPAR6a3Gs8qtbtwWq6Of7P9vtkFDw_1tfNkkU4j4mstjaGqwk8GzgBJbNe2snGt9O49PKG3HJ5Ix0HSWc4lzWvVjgwkmO2S9_10q3A04LTvVtrTelQwT-XHu2s9nZVlL0C9bCj7VXQSZK8w_3m9DjCn2xz47Js491JVUN3u3Ra83pic4A6FbumgI8tY4T5OWdlZ5OBG92N9pQR0H25fv9yPrK0UUfKan2P5X5_wj_zKXDV3jUpQKWYmTjXk67u0]--></g></svg>